HIERARCHY
ROOT Hips
{
	OFFSET	0.00	0.00	0.00
	CHANNELS 6 Xposition Yposition Zposition Zrotation Xrotation Yrotation
	JOINT LeftUpLeg
	{
		OFFSET	 0.126116	-0.014019	-0.065224
		CHANNELS 3 Zrotation Xrotation Yrotation
		JOINT LeftLeg
		{
			OFFSET	 0.000000	 0.000000	 0.569914
			CHANNELS 3 Zrotation Xrotation Yrotation
			JOINT LeftFoot
			{
				OFFSET	 0.000000	 0.000000	 0.544423
				CHANNELS 3 Zrotation Xrotation Yrotation
				JOINT LeftToeBase
				{
					OFFSET	 0.000000	 0.000000	 0.207117
					CHANNELS 3 Zrotation Xrotation Yrotation
					End Site
					{
						OFFSET	 0.000000	 0.000000	 0.207117
					}
				}
			}
		}
	}
	JOINT RightUpLeg
	{
		OFFSET	-0.124023	-0.008373	-0.065224
		CHANNELS 3 Zrotation Xrotation Yrotation
		JOINT RightLeg
		{
			OFFSET	 0.000000	 0.000000	 0.570047
			CHANNELS 3 Zrotation Xrotation Yrotation
			JOINT RightFoot
			{
				OFFSET	 0.000000	 0.000000	 0.544354
				CHANNELS 3 Zrotation Xrotation Yrotation
				JOINT RightToeBase
				{
					OFFSET	 0.000000	 0.000000	 0.207540
					CHANNELS 3 Zrotation Xrotation Yrotation
					End Site
					{
						OFFSET	 0.000000	 0.000000	 0.207540
					}
				}
			}
		}
	}
	JOINT Spine
	{
		OFFSET	 0.000184	-0.007763	 0.117403
		CHANNELS 3 Zrotation Xrotation Yrotation
		JOINT Spine1
		{
			OFFSET	 0.000000	 0.000000	 0.137269
			CHANNELS 3 Zrotation Xrotation Yrotation
			JOINT Spine2
			{
				OFFSET	 0.000000	 0.000000	 0.156879
				CHANNELS 3 Zrotation Xrotation Yrotation
				JOINT LeftShoulder
				{
					OFFSET	 0.080501	-0.002496	 0.160144
					CHANNELS 3 Zrotation Xrotation Yrotation
					JOINT LeftArm
					{
						OFFSET	 0.000000	 0.000000	 0.164363
						CHANNELS 3 Zrotation Xrotation Yrotation
						JOINT LeftForeArm
						{
							OFFSET	 0.000000	 0.000000	 0.364576
							CHANNELS 3 Zrotation Xrotation Yrotation
							JOINT LeftHand
							{
								OFFSET	 0.000000	 0.000000	 0.360812
								CHANNELS 3 Zrotation Xrotation Yrotation
								JOINT LeftHandIndex1
								{
									OFFSET	 0.000000	 0.000000	 0.086006
									CHANNELS 3 Zrotation Xrotation Yrotation
									JOINT LeftHandIndex2
									{
										OFFSET	 0.000000	 0.000000	 0.047236
										CHANNELS 3 Zrotation Xrotation Yrotation
										JOINT LeftHandIndex3
										{
											OFFSET	-0.004284	-0.000551	 0.038166
											CHANNELS 3 Zrotation Xrotation Yrotation
											End Site
											{
												OFFSET	-0.004284	-0.000551	 0.038166
											}
										}
									}
								}
							}
						}
					}
				}
				JOINT Neck
				{
					OFFSET	 0.000000	 0.000000	 0.176489
					CHANNELS 3 Zrotation Xrotation Yrotation
					JOINT Head
					{
						OFFSET	 0.000000	-0.001747	 0.077940
						CHANNELS 3 Zrotation Xrotation Yrotation
						End Site
						{
							OFFSET	 0.000000	-0.001747	 0.077940
						}
					}
				}
				JOINT RightShoulder
				{
					OFFSET	-0.080363	 0.000306	 0.159706
					CHANNELS 3 Zrotation Xrotation Yrotation
					JOINT RightArm
					{
						OFFSET	 0.000000	 0.000000	 0.164196
						CHANNELS 3 Zrotation Xrotation Yrotation
						JOINT RightForeArm
						{
							OFFSET	 0.000000	 0.000000	 0.365611
							CHANNELS 3 Zrotation Xrotation Yrotation
							JOINT RightHand
							{
								OFFSET	 0.000000	 0.000000	 0.360648
								CHANNELS 3 Zrotation Xrotation Yrotation
								JOINT RightHandIndex1
								{
									OFFSET	 0.000000	 0.000000	 0.069977
									CHANNELS 3 Zrotation Xrotation Yrotation
									JOINT RightHandIndex2
									{
										OFFSET	 0.000000	 0.000000	 0.052305
										CHANNELS 3 Zrotation Xrotation Yrotation
										JOINT RightHandIndex3
										{
											OFFSET	 0.009002	-0.000782	 0.042196
											CHANNELS 3 Zrotation Xrotation Yrotation
											End Site
											{
												OFFSET	 0.009002	-0.000782	 0.042196
											}
										}
									}
								}
							}
						}
					}
				}
			}
		}
	}
}
MOTION
Frames:    9
Frame Time: 0.03333334
 3.562064	 6.569633	-0.262977	-111.276600	-2.076325	-1.247775	 7.350147	 21.228680	-176.928900	-3.519699	-11.628900	 1.500900	 3.852123	 84.432330	-0.386710	-2.291127	 40.599640	-0.291815	 5.235756	-35.939750	-177.599500	 0.336630	-40.940510	 4.419079	 136.087000	 89.695450	-130.584000	 2.367409	 31.687720	 0.073079	 14.922350	 3.389254	 2.272142	-1.169978	-1.579428	 0.752260	-1.187144	-4.057327	-0.650974	-91.776180	 78.527400	-180.000000	 35.929870	 60.505290	-54.215450	 2.888039	-20.629520	-51.901360	 20.847370	-32.451360	 4.579214	-3.812334	 37.924440	-2.927599	-2.450526	 36.184240	 0.754587	-1.378229	 35.397820	-2.634230	 1.226103	 2.176681	-4.968283	 1.019075	-9.265859	 3.656886	 89.782120	 78.203870	 180.000000	-37.391910	 72.380640	 34.768360	-15.460440	-18.892050	 36.380610	-28.520600	-34.698720	-0.121422	 6.437017	 35.671460	-0.771858	 2.830251	 35.756010	-7.813440	-2.350882	 35.473990	 5.254307
 3.493691	 6.599661	-0.265493	-110.590200	-1.949620	-1.323283	 7.699606	 24.337020	-177.813800	-2.994258	-11.611280	 1.632900	 4.917140	 83.719680	-0.783476	-2.232213	 44.898420	-0.415734	 4.977088	-35.878300	-177.422500	 0.005648	-37.759570	 3.699538	 151.801500	 89.380710	-146.515600	 2.361247	 32.659700	 0.095341	 6.889524	 3.211807	 1.946774	-1.275917	-1.706264	 0.551128	-1.156445	-4.144022	-0.733027	-91.776180	 78.527420	-180.000000	 37.296230	 60.998110	-55.436060	 3.571525	-23.053360	-53.921130	 25.193070	-34.391670	 7.758991	-3.812334	 37.924440	-2.927599	-2.450526	 36.184240	 0.754587	-1.378229	 35.397820	-2.634230	 1.259493	 2.073797	-5.030292	 1.088526	-9.333432	 4.340408	 89.782120	 78.203930	 180.000000	-35.786800	 73.216710	 32.975060	-17.195060	-20.348360	 36.486240	-33.474370	-36.929290	-3.438796	 6.437017	 35.671460	-0.771858	 2.830251	 35.756010	-7.813440	-2.350882	 35.473990	 5.254307
 3.390130	 6.648817	-0.269172	-109.556700	-2.180761	-1.244599	 8.597297	 28.815900	 179.657200	-1.467572	-11.569850	 1.907269	 5.897950	 78.684080	-0.105390	-2.138645	 49.924510	-0.582802	 4.582753	-33.775670	-178.056900	 2.215900	-40.525750	 5.327386	 14.905010	 89.248790	-8.283563	 2.379845	 29.419030	 0.022450	-4.738634	 2.905405	 1.786921	-1.437877	-1.730987	 0.124252	-0.920823	-3.771169	-0.935789	-91.776180	 78.527420	-180.000000	 40.184400	 62.717560	-56.100320	 5.122573	-24.968340	-53.637050	 30.000370	-33.418780	 10.264580	-3.812334	 37.924440	-2.927599	-2.450526	 36.184240	 0.754587	-1.378229	 35.397820	-2.634230	 1.494797	 2.568122	-5.131369	 1.288200	-9.561174	 5.011781	 89.782120	 78.203870	 180.000000	-33.882610	 73.914100	 30.738570	-19.396290	-21.765520	 36.321740	-39.311900	-36.274910	-6.319437	 6.437017	 35.671460	-0.771858	 2.830251	 35.756010	-7.813440	-2.350882	 35.473990	 5.254307
 3.328260	 6.678851	-0.269517	-108.673900	-2.281577	-1.074426	 9.260565	 31.185760	 177.766800	-0.907459	-11.560800	 1.962697	 5.389256	 72.681240	 1.145269	-2.103500	 51.453630	-0.639828	 3.557328	-32.042920	-178.833900	 4.120199	-43.051910	 6.443089	 3.505434	 87.307030	 3.663896	 2.385988	 28.082680	-0.006609	-11.496920	 2.646717	 1.469123	-1.599492	-1.743481	-0.097870	-0.774208	-3.561127	-1.103791	-91.776180	 78.527400	-180.000000	 42.041950	 64.155750	-55.836560	 6.710026	-25.371700	-51.787730	 32.281200	-31.164280	 10.345220	-3.812334	 37.924440	-2.927599	-2.450526	 36.184240	 0.754587	-1.378229	 35.397820	-2.634230	 1.618408	 2.959855	-5.061840	 1.374315	-9.538212	 5.105557	 89.782110	 78.203870	 180.000000	-32.319350	 74.141810	 28.719300	-20.119340	-22.351580	 36.376590	-41.600690	-34.127430	-6.624352	 6.437017	 35.671460	-0.771858	 2.830251	 35.756010	-7.813440	-2.350882	 35.473990	 5.254307
 3.250340	 6.720621	-0.263587	-107.270900	-2.657003	-1.364313	 7.321884	 24.656120	 176.631000	-1.018145	-28.355320	 1.671445	 3.139831	 65.570270	 0.300305	-2.162690	 48.781770	-0.542262	 1.958880	-29.867200	-179.208600	 5.276446	-46.849840	 6.878943	 3.493751	 84.077790	 2.983879	 2.398420	 24.507510	-0.081956	-20.338210	 2.140061	 1.637098	-1.738369	-1.575100	-0.222625	-0.881362	-3.169784	-1.199733	-91.776180	 78.527400	-180.000000	 44.302320	 66.528140	-55.695370	 9.335937	-24.820910	-47.137520	 35.047100	-26.134480	 8.672616	-3.812334	 37.924440	-2.927599	-2.450526	 36.184240	 0.754587	-1.378229	 35.397820	-2.634230	 1.687693	 3.022935	-4.830536	 1.425665	-9.113692	 4.879193	 89.782120	 78.203930	 180.000000	-32.314350	 74.038930	 28.910910	-20.796330	-22.771250	 36.395280	-43.663160	-29.208740	-5.262281	 6.437017	 35.671460	-0.771858	 2.830251	 35.756010	-7.813440	-2.350882	 35.473990	 5.254307
 3.180507	 6.760579	-0.255407	-106.088400	-3.032338	-0.219684	 7.748473	 14.552140	 172.807300	-1.974755	-48.994050	 0.302748	 1.341205	 56.657340	 0.673260	-2.327304	 37.163470	-0.202047	 0.881259	-25.755150	 178.776500	 6.272662	-47.818230	 7.041677	 3.094513	 84.591650	 3.326243	 2.407174	 19.165010	-0.189625	-28.163030	 2.611027	 0.469232	-1.751376	-1.656740	-0.525910	-0.575424	-3.252355	-1.248239	-91.776180	 78.527420	-180.000000	 43.877630	 69.145580	-53.327570	 10.892730	-23.248340	-42.160340	 37.132170	-19.555270	 5.378504	-3.812334	 37.924440	-2.927599	-2.450526	 36.184240	 0.754587	-1.378229	 35.397820	-2.634230	 1.551330	 2.890269	-4.665879	 1.263999	-8.577018	 4.260847	 89.782120	 78.203930	 180.000000	-33.831430	 73.215700	 31.336940	-21.613850	-22.679160	 36.118440	-45.037650	-22.645690	-2.158746	 6.437017	 35.671460	-0.771858	 2.830251	 35.756010	-7.813440	-2.350882	 35.473990	 5.254307
 3.117607	 6.795820	-0.248038	-104.556400	-3.157713	 2.240441	 6.287807	 4.999677	 169.579700	-4.913815	-64.485960	-4.642182	-0.811595	 56.521640	 0.569367	-2.359144	 33.209530	-0.106526	 0.243626	-20.631070	 175.516900	 7.347744	-45.981470	 6.922455	 1.676588	 86.273690	 5.202504	 2.407683	 17.529360	-0.221729	-34.615200	 3.044663	-2.085862	-1.881349	-1.861780	-1.075057	-0.617422	-4.062840	-1.234962	-91.776180	 78.527400	-180.000000	 41.940110	 71.141630	-50.282770	 10.369290	-21.023410	-38.322090	 37.692040	-12.157180	 1.140319	-3.812334	 37.924440	-2.927599	-2.450526	 36.184240	 0.754587	-1.378229	 35.397820	-2.634230	 1.300738	 2.949476	-4.500989	 1.032903	-8.831952	 3.578257	 89.782120	 78.203930	 180.000000	-36.591550	 71.860520	 36.235130	-21.958320	-22.182520	 35.771320	-45.939040	-15.233760	 1.967681	 6.437017	 35.671460	-0.771858	 2.830251	 35.756010	-7.813440	-2.350882	 35.473990	 5.254307
 3.059342	 6.826210	-0.242954	-103.616600	-3.151048	 2.787234	 3.557266	-3.905282	 170.203100	-6.477218	-73.642710	-8.395358	-1.121218	 63.462230	 0.250905	-2.330121	 36.858670	-0.194404	 0.411902	-16.897330	 174.351200	 7.573465	-44.919860	 6.851346	-2.911625	 88.754170	 10.107270	 2.407668	 17.803240	-0.216379	-38.782630	 2.991180	-2.592340	-1.793161	-1.913556	-1.038215	-1.009594	-4.448642	-1.015544	-91.776180	 78.527400	-180.000000	 39.294320	 72.112270	-46.700060	 9.564693	-19.012280	-35.691320	 38.200440	-4.121430	-3.701812	-3.812334	 37.924440	-2.927599	-2.450526	 36.184240	 0.754587	-1.378229	 35.397820	-2.634230	 0.987760	 2.980800	-4.291643	 0.780208	-9.160682	 2.745472	 89.782120	 78.203870	 180.000000	-38.413630	 70.232600	 40.989540	-21.522570	-21.427080	 35.458460	-46.796280	-7.196848	 6.743139	 6.437017	 35.671460	-0.771858	 2.830251	 35.756010	-7.813440	-2.350882	 35.473990	 5.254307
 3.000048	 6.854917	-0.241053	-103.541900	-3.087113	 3.589479	 1.508506	-11.433710	 170.984100	-6.903380	-76.260430	-10.113900	-1.235843	 72.319530	-0.183072	-2.294074	 40.348110	-0.284998	 0.744857	-13.352920	 173.084200	 7.403643	-44.434760	 6.631317	-170.090100	 88.972070	 177.275300	 2.406997	 19.427100	-0.184453	-40.551560	 3.252871	-3.487732	-1.278971	-1.900771	-0.902385	-1.268798	-4.807799	-0.536570	-91.776180	 78.527400	 180.000000	 37.784700	 72.344950	-43.177050	 8.735399	-17.528240	-34.778770	 38.642680	 4.289518	-8.816234	-3.812334	 37.924440	-2.927599	-2.450526	 36.184240	 0.754587	-1.378229	 35.397820	-2.634230	 0.553577	 2.997021	-3.932557	 0.422126	-8.970764	 1.594835	 89.782120	 78.203930	 180.000000	-39.095780	 68.217120	 44.441710	-19.979070	-20.515910	 35.703310	-47.114440	 1.183135	 11.835540	 6.437017	 35.671460	-0.771858	 2.830251	 35.756010	-7.813440	-2.350882	 35.473990	 5.254307
